HIERARCHY
ROOT mixamorig:Hips
{
	OFFSET -0.000008 104.274872 1.554316
	CHANNELS 6 Xposition Yposition Zposition Xrotation Yrotation Zrotation
	JOINT mixamorig:Spine
	{
		OFFSET -0.000005 10.181595 0.131519
		CHANNELS 6 Xposition Yposition Zposition Xrotation Yrotation Zrotation
		JOINT mixamorig:Spine1
		{
			OFFSET -0.000000 9.893959 -1.470707
			CHANNELS 6 Xposition Yposition Zposition Xrotation Yrotation Zrotation
			JOINT mixamorig:Spine2
			{
				OFFSET -0.000000 9.220757 -1.370641
				CHANNELS 6 Xposition Yposition Zposition Xrotation Yrotation Zrotation
				JOINT mixamorig:Neck
				{
					OFFSET 0.000001 16.740417 -2.049036
					CHANNELS 6 Xposition Yposition Zposition Xrotation Yrotation Zrotation
					JOINT mixamorig:Head
					{
						OFFSET 0.000000 9.617874 1.685006
						CHANNELS 6 Xposition Yposition Zposition Xrotation Yrotation Zrotation
						JOINT mixamorig:HeadTop_End
						{
							OFFSET 0.000002 22.037354 7.501101
							CHANNELS 6 Xposition Yposition Zposition Xrotation Yrotation Zrotation
							End Site
							{
								OFFSET 0.000168 2310.654297 -282.823242
							}
						}
					}
				}
				JOINT mixamorig:RightShoulder
				{
					OFFSET -4.569970 11.014908 -2.160885
					CHANNELS 6 Xposition Yposition Zposition Xrotation Yrotation Zrotation
					JOINT mixamorig:RightArm
					{
						OFFSET -10.592851 -0.524811 -2.232101
						CHANNELS 6 Xposition Yposition Zposition Xrotation Yrotation Zrotation
						JOINT mixamorig:RightForeArm
						{
							OFFSET -27.841511 0.000031 -0.000004
							CHANNELS 6 Xposition Yposition Zposition Xrotation Yrotation Zrotation
							JOINT mixamorig:RightHand
							{
								OFFSET -28.328831 -0.000015 0.000015
								CHANNELS 6 Xposition Yposition Zposition Xrotation Yrotation Zrotation
								JOINT mixamorig:RightHandThumb1
								{
									OFFSET -2.464806 -1.573990 2.681852
									CHANNELS 6 Xposition Yposition Zposition Xrotation Yrotation Zrotation
									JOINT mixamorig:RightHandThumb2
									{
										OFFSET -3.215179 -1.872803 1.924282
										CHANNELS 6 Xposition Yposition Zposition Xrotation Yrotation Zrotation
										JOINT mixamorig:RightHandThumb3
										{
											OFFSET -2.654831 -1.527969 1.512609
											CHANNELS 6 Xposition Yposition Zposition Xrotation Yrotation Zrotation
											JOINT mixamorig:RightHandThumb4
											{
												OFFSET -2.018814 -1.152008 1.108052
												CHANNELS 6 Xposition Yposition Zposition Xrotation Yrotation Zrotation
												End Site
												{
													OFFSET -188.809540 -114.533607 132.431396
												}
											}
										}
									}
								}
								JOINT mixamorig:RightHandIndex1
								{
									OFFSET -9.108284 -0.517868 2.259835
									CHANNELS 6 Xposition Yposition Zposition Xrotation Yrotation Zrotation
									JOINT mixamorig:RightHandIndex2
									{
										OFFSET -3.699989 0.000000 0.001215
										CHANNELS 6 Xposition Yposition Zposition Xrotation Yrotation Zrotation
										JOINT mixamorig:RightHandIndex3
										{
											OFFSET -2.850006 0.000031 -0.000522
											CHANNELS 6 Xposition Yposition Zposition Xrotation Yrotation Zrotation
											JOINT mixamorig:RightHandIndex4
											{
												OFFSET -2.772186 -0.000015 -0.000020
												CHANNELS 6 Xposition Yposition Zposition Xrotation Yrotation Zrotation
												End Site
												{
													OFFSET -277.218445 0.000000 -0.050231
												}
											}
										}
									}
								}
								JOINT mixamorig:RightHandMiddle1
								{
									OFFSET -9.532516 -0.000031 -0.000023
									CHANNELS 6 Xposition Yposition Zposition Xrotation Yrotation Zrotation
									JOINT mixamorig:RightHandMiddle2
									{
										OFFSET -3.700005 -0.000015 0.003713
										CHANNELS 6 Xposition Yposition Zposition Xrotation Yrotation Zrotation
										JOINT mixamorig:RightHandMiddle3
										{
											OFFSET -2.949974 0.000015 -0.002054
											CHANNELS 6 Xposition Yposition Zposition Xrotation Yrotation Zrotation
											JOINT mixamorig:RightHandMiddle4
											{
												OFFSET -2.946640 0.000000 -0.000156
												CHANNELS 6 Xposition Yposition Zposition Xrotation Yrotation Zrotation
												End Site
												{
													OFFSET -294.664337 0.000000 -0.113670
												}
											}
										}
									}
								}
								JOINT mixamorig:RightHandRing1
								{
									OFFSET -9.103600 -0.043076 -1.865134
									CHANNELS 6 Xposition Yposition Zposition Xrotation Yrotation Zrotation
									JOINT mixamorig:RightHandRing2
									{
										OFFSET -3.379288 0.000000 -0.001055
										CHANNELS 6 Xposition Yposition Zposition Xrotation Yrotation Zrotation
										JOINT mixamorig:RightHandRing3
										{
											OFFSET -2.889687 -0.000015 0.000379
											CHANNELS 6 Xposition Yposition Zposition Xrotation Yrotation Zrotation
											JOINT mixamorig:RightHandRing4
											{
												OFFSET -2.638809 -0.000015 0.000941
												CHANNELS 6 Xposition Yposition Zposition Xrotation Yrotation Zrotation
												End Site
												{
													OFFSET -263.880371 0.000000 0.516020
												}
											}
										}
									}
								}
								JOINT mixamorig:RightHandPinky1
								{
									OFFSET -8.076683 -0.486710 -3.806280
									CHANNELS 6 Xposition Yposition Zposition Xrotation Yrotation Zrotation
									JOINT mixamorig:RightHandPinky2
									{
										OFFSET -3.600014 -0.000015 -0.003747
										CHANNELS 6 Xposition Yposition Zposition Xrotation Yrotation Zrotation
										JOINT mixamorig:RightHandPinky3
										{
											OFFSET -2.099983 0.000000 -0.005739
											CHANNELS 6 Xposition Yposition Zposition Xrotation Yrotation Zrotation
											JOINT mixamorig:RightHandPinky4
											{
												OFFSET -2.115768 -0.000031 -0.003680
												CHANNELS 6 Xposition Yposition Zposition Xrotation Yrotation Zrotation
												End Site
												{
													OFFSET -211.577087 0.000000 -0.350686
												}
											}
										}
									}
								}
							}
						}
					}
				}
				JOINT mixamorig:LeftShoulder
				{
					OFFSET 4.570447 11.014725 -2.160855
					CHANNELS 6 Xposition Yposition Zposition Xrotation Yrotation Zrotation
					JOINT mixamorig:LeftArm
					{
						OFFSET 10.592371 -0.524597 -2.232119
						CHANNELS 6 Xposition Yposition Zposition Xrotation Yrotation Zrotation
						JOINT mixamorig:LeftForeArm
						{
							OFFSET 27.841532 -0.000031 0.000026
							CHANNELS 6 Xposition Yposition Zposition Xrotation Yrotation Zrotation
							JOINT mixamorig:LeftHand
							{
								OFFSET 28.328846 -0.000061 0.000022
								CHANNELS 6 Xposition Yposition Zposition Xrotation Yrotation Zrotation
								JOINT mixamorig:LeftHandThumb1
								{
									OFFSET 2.466141 -1.576172 2.681732
									CHANNELS 6 Xposition Yposition Zposition Xrotation Yrotation Zrotation
									JOINT mixamorig:LeftHandThumb2
									{
										OFFSET 3.217812 -1.872070 1.916482
										CHANNELS 6 Xposition Yposition Zposition Xrotation Yrotation Zrotation
										JOINT mixamorig:LeftHandThumb3
										{
											OFFSET 2.656029 -1.528778 1.514513
											CHANNELS 6 Xposition Yposition Zposition Xrotation Yrotation Zrotation
											JOINT mixamorig:LeftHandThumb4
											{
												OFFSET 2.020889 -1.154053 1.115139
												CHANNELS 6 Xposition Yposition Zposition Xrotation Yrotation Zrotation
												End Site
												{
													OFFSET 190.885437 -115.081749 130.048782
												}
											}
										}
									}
								}
								JOINT mixamorig:LeftHandIndex1
								{
									OFFSET 9.109314 -0.518021 2.259871
									CHANNELS 6 Xposition Yposition Zposition Xrotation Yrotation Zrotation
									JOINT mixamorig:LeftHandIndex2
									{
										OFFSET 3.699989 0.000000 -0.000322
										CHANNELS 6 Xposition Yposition Zposition Xrotation Yrotation Zrotation
										JOINT mixamorig:LeftHandIndex3
										{
											OFFSET 2.850006 0.000000 0.000352
											CHANNELS 6 Xposition Yposition Zposition Xrotation Yrotation Zrotation
											JOINT mixamorig:LeftHandIndex4
											{
												OFFSET 2.774864 -0.000031 -0.000027
												CHANNELS 6 Xposition Yposition Zposition Xrotation Yrotation Zrotation
												End Site
												{
													OFFSET 277.486267 0.000000 -0.009857
												}
											}
										}
									}
								}
								JOINT mixamorig:LeftHandMiddle1
								{
									OFFSET 9.533394 0.000061 0.000044
									CHANNELS 6 Xposition Yposition Zposition Xrotation Yrotation Zrotation
									JOINT mixamorig:LeftHandMiddle2
									{
										OFFSET 3.699989 -0.000015 -0.000231
										CHANNELS 6 Xposition Yposition Zposition Xrotation Yrotation Zrotation
										JOINT mixamorig:LeftHandMiddle3
										{
											OFFSET 2.949997 -0.000015 -0.000059
											CHANNELS 6 Xposition Yposition Zposition Xrotation Yrotation Zrotation
											JOINT mixamorig:LeftHandMiddle4
											{
												OFFSET 2.952896 0.000031 0.000063
												CHANNELS 6 Xposition Yposition Zposition Xrotation Yrotation Zrotation
												End Site
												{
													OFFSET 295.289337 0.000000 0.022810
												}
											}
										}
									}
								}
								JOINT mixamorig:LeftHandRing1
								{
									OFFSET 9.104523 -0.042999 -1.865074
									CHANNELS 6 Xposition Yposition Zposition Xrotation Yrotation Zrotation
									JOINT mixamorig:LeftHandRing2
									{
										OFFSET 3.150009 -0.000031 0.000043
										CHANNELS 6 Xposition Yposition Zposition Xrotation Yrotation Zrotation
										JOINT mixamorig:LeftHandRing3
										{
											OFFSET 2.949982 -0.000015 0.000040
											CHANNELS 6 Xposition Yposition Zposition Xrotation Yrotation Zrotation
											JOINT mixamorig:LeftHandRing4
											{
												OFFSET 2.644348 0.000000 0.000057
												CHANNELS 6 Xposition Yposition Zposition Xrotation Yrotation Zrotation
												End Site
												{
													OFFSET 264.434631 0.000000 0.012105
												}
											}
										}
									}
								}
								JOINT mixamorig:LeftHandPinky1
								{
									OFFSET 8.077789 -0.486847 -3.806259
									CHANNELS 6 Xposition Yposition Zposition Xrotation Yrotation Zrotation
									JOINT mixamorig:LeftHandPinky2
									{
										OFFSET 3.599953 0.000031 0.014727
										CHANNELS 6 Xposition Yposition Zposition Xrotation Yrotation Zrotation
										JOINT mixamorig:LeftHandPinky3
										{
											OFFSET 2.100021 0.000015 0.007705
											CHANNELS 6 Xposition Yposition Zposition Xrotation Yrotation Zrotation
											JOINT mixamorig:LeftHandPinky4
											{
												OFFSET 2.125504 0.000031 0.007517
												CHANNELS 6 Xposition Yposition Zposition Xrotation Yrotation Zrotation
												End Site
												{
													OFFSET 212.550781 0.000000 0.625752
												}
											}
										}
									}
								}
							}
						}
					}
				}
			}
		}
	}
	JOINT mixamorig:RightUpLeg
	{
		OFFSET -8.207787 -6.751648 -1.599560
		CHANNELS 6 Xposition Yposition Zposition Xrotation Yrotation Zrotation
		JOINT mixamorig:RightLeg
		{
			OFFSET -0.000002 -44.370117 0.345942
			CHANNELS 6 Xposition Yposition Zposition Xrotation Yrotation Zrotation
			JOINT mixamorig:RightFoot
			{
				OFFSET 0.000003 -44.423679 -3.043532
				CHANNELS 6 Xposition Yposition Zposition Xrotation Yrotation Zrotation
				JOINT mixamorig:RightToeBase
				{
					OFFSET -0.000002 -8.728671 10.710558
					CHANNELS 6 Xposition Yposition Zposition Xrotation Yrotation Zrotation
					JOINT mixamorig:RightToe_End
					{
						OFFSET -0.000001 -0.000679 9.278119
						CHANNELS 6 Xposition Yposition Zposition Xrotation Yrotation Zrotation
						End Site
						{
							OFFSET 0.000000 -0.067690 927.812134
						}
					}
				}
			}
		}
	}
	JOINT mixamorig:LeftUpLeg
	{
		OFFSET 8.207793 -6.751686 -1.599556
		CHANNELS 6 Xposition Yposition Zposition Xrotation Yrotation Zrotation
		JOINT mixamorig:LeftLeg
		{
			OFFSET -0.000004 -44.370014 0.346954
			CHANNELS 6 Xposition Yposition Zposition Xrotation Yrotation Zrotation
			JOINT mixamorig:LeftFoot
			{
				OFFSET -0.000001 -44.423672 -3.044401
				CHANNELS 6 Xposition Yposition Zposition Xrotation Yrotation Zrotation
				JOINT mixamorig:LeftToeBase
				{
					OFFSET -0.000002 -8.728669 10.710558
					CHANNELS 6 Xposition Yposition Zposition Xrotation Yrotation Zrotation
					JOINT mixamorig:LeftToe_End
					{
						OFFSET -0.000003 -0.000679 9.278133
						CHANNELS 6 Xposition Yposition Zposition Xrotation Yrotation Zrotation
						End Site
						{
							OFFSET 0.000000 -0.068021 927.813477
						}
					}
				}
			}
		}
	}
}
MOTION
Frames: 3
Frame Time: 0.033333
0.000006 104.270477 1.554256 0.000010 0.000003 -0.000113 -0.000005 10.181587 0.131522 0.000001 -0.000003 0.000084 -0.000000 9.893967 -1.470711 0.000001 0.000000 -0.000000 -0.000000 9.220802 -1.370642 0.000000 -0.000000 -0.000000 0.000001 16.740433 -2.049030 0.000000 -0.000000 -0.000000 0.000000 9.617859 1.685014 0.000000 0.000000 0.000000 0.000002 22.037384 7.501101 0.000000 -0.000000 0.000000 -4.569968 11.014880 -2.160881 0.000008 0.000001 -0.000038 -10.592878 -0.524720 -2.231956 75.599143 18.956835 -14.757705 -27.841526 0.000014 0.000541 -52.042036 109.847556 69.616498 -28.328831 0.000021 0.000028 -0.000321 -0.000045 0.000008 -2.464508 -1.573689 2.682286 -53.491883 -179.820521 -30.015526 -3.215285 -1.872636 1.924666 154.844992 29.354217 -10.057771 -2.654953 -1.527883 1.513076 143.797830 27.255948 -41.469780 -2.018842 -1.152002 1.108042 -0.000006 -0.000001 0.000002 -9.108407 -0.517551 2.260125 101.441594 14.762344 -18.056414 -3.700064 0.000322 0.001510 95.903021 11.754398 -12.996378 -2.850060 0.000372 -0.000276 93.271984 9.647352 -10.210754 -2.772166 0.000000 -0.000017 -0.000002 -0.000000 0.000001 -9.532609 0.000264 0.000191 85.057254 16.233681 -15.037466 -3.700073 0.000308 0.003917 80.311762 12.642979 -10.599070 -2.950063 0.000323 -0.001872 79.824837 10.577786 -8.849945 -2.946626 0.000000 -0.000153 -0.000001 -0.000001 0.000000 -9.103737 -0.042773 -1.864901 82.114645 19.537830 -17.017949 -3.379319 0.000307 -0.000856 80.849140 11.009057 -9.400596 -2.889747 0.000354 0.000586 84.971242 5.835398 -5.386304 -2.638808 -0.000001 0.000935 0.000001 -0.000002 -0.000000 -8.076777 -0.486417 -3.806088 71.705792 18.101888 -13.020452 -3.600043 0.000256 -0.003584 74.395349 8.053648 -5.846765 -2.100003 0.000308 -0.005576 77.576920 3.731324 -2.827426 -2.115762 -0.000011 -0.003679 0.000000 0.000001 -0.000003 4.570446 11.014691 -2.160851 -0.000018 0.000010 -0.000021 10.592387 -0.524483 -2.232345 74.919491 -7.115439 5.454923 27.841837 0.000078 -0.000229 108.684525 -69.421565 87.989659 28.328840 -0.000028 0.000015 0.000022 -0.000090 -0.000000 2.465867 -1.576027 2.681895 124.597103 -0.376119 -141.437522 3.217808 -1.871741 1.916351 152.166424 -30.090894 4.507182 2.656100 -1.528671 1.514445 136.403891 -28.814201 42.667898 2.020898 -1.154069 1.115143 0.000001 0.000003 0.000006 9.109390 -0.517849 2.259719 86.904554 -12.447803 11.786274 3.700047 0.000149 -0.000469 85.494837 -13.074060 12.107755 2.850051 0.000184 0.000210 84.341211 -11.950952 10.831159 2.774903 -0.000044 -0.000028 0.000001 -0.000001 -0.000000 9.533457 0.000250 -0.000093 89.163229 -11.508241 11.334164 3.700069 0.000171 -0.000386 89.786764 -12.966989 12.916534 2.950054 0.000171 -0.000204 89.459741 -15.988950 15.843824 2.952865 -0.000033 0.000066 0.000001 0.000000 0.000000 9.104597 -0.042814 -1.865230 88.755351 -12.120095 11.863334 3.150061 0.000196 -0.000092 91.674082 -13.950544 14.361881 2.950017 0.000158 -0.000055 93.196176 -15.406395 16.281110 2.644329 0.000048 0.000056 0.000004 -0.000000 -0.000002 8.077848 -0.486712 -3.806410 76.116058 -16.119696 13.115976 3.599988 0.000177 0.014555 76.500004 -14.085091 11.533895 2.100043 0.000172 0.007559 79.166680 -12.880419 11.068497 2.125496 -0.000014 0.007513 0.000001 -0.000002 -0.000000 -8.207786 -6.751667 -1.599560 -0.077001 -0.000003 0.000080 -0.000002 -44.370110 0.345938 0.153719 -0.000000 -0.000000 0.000000 -44.423679 -3.043532 -0.076700 0.000000 -0.000002 -0.000006 -8.728667 10.710559 -0.000009 -0.000000 -0.000000 -0.000001 -0.000679 9.278123 0.000000 -0.000000 -0.000000 8.207792 -6.751710 -1.599556 -0.074518 -0.000003 0.000081 -0.000002 -44.370014 0.346960 0.148822 0.000002 0.000000 -0.000001 -44.423664 -3.044403 -0.074314 0.000000 -0.000002 -0.000004 -8.728671 10.710558 0.000007 -0.000000 -0.000000 0.000000 -0.000680 9.278137 -0.000000 0.000000 -0.000001 
0.000006 104.270477 1.554256 0.000010 0.000003 -0.000113 -0.000005 10.181587 0.131522 0.000001 -0.000003 0.000084 -0.000000 9.893967 -1.470711 0.000001 0.000000 -0.000000 -0.000000 9.220802 -1.370642 0.000000 -0.000000 -0.000000 0.000001 16.740433 -2.049030 0.000000 -0.000000 -0.000000 0.000000 9.617859 1.685014 0.000000 0.000000 0.000000 0.000002 22.037384 7.501101 0.000000 -0.000000 0.000000 -4.569968 11.014880 -2.160881 0.000008 0.000001 -0.000038 -10.592869 -0.524783 -2.231884 76.145503 33.332351 -26.395584 -27.841526 0.000016 0.000555 -51.773814 106.617778 66.150669 -28.328827 0.000007 0.000026 -0.000322 -0.000045 0.000007 -2.464479 -1.573657 2.682267 -54.673356 -179.525102 -34.316025 -3.215300 -1.872607 1.924662 153.805410 29.750900 -7.390733 -2.654942 -1.527857 1.513070 142.307032 27.705722 -39.679356 -2.018845 -1.152014 1.108049 -0.000003 -0.000000 0.000000 -9.108386 -0.517555 2.260111 97.693125 15.077253 -17.272910 -3.700078 0.000328 0.001501 95.580957 12.447466 -13.685839 -2.850078 0.000360 -0.000265 94.081990 10.990952 -11.796742 -2.772161 -0.000001 -0.000021 0.000001 0.000000 0.000002 -9.532586 0.000257 0.000182 81.349848 16.642005 -14.452025 -3.700075 0.000321 0.003915 80.817920 10.908426 -9.214592 -2.950037 0.000323 -0.001859 83.275169 10.793186 -9.594982 -2.946626 -0.000014 -0.000154 0.000003 0.000000 0.000001 -9.103713 -0.042775 -1.864915 80.235059 20.003172 -16.865247 -3.379336 0.000299 -0.000870 81.685702 9.227396 -7.996248 -2.889757 0.000341 0.000585 88.639832 6.501235 -6.393223 -2.638811 -0.000026 0.000942 -0.000004 0.000003 -0.000002 -8.076769 -0.486418 -3.806094 71.455370 20.769953 -14.903936 -3.600056 0.000248 -0.003586 72.948264 10.419763 -7.440478 -2.100016 0.000301 -0.005545 77.593230 5.867897 -4.541283 -2.115763 -0.000041 -0.003680 0.000001 -0.000002 -0.000005 4.570446 11.014691 -2.160851 -0.000018 0.000010 -0.000021 10.592398 -0.524481 -2.232358 74.128569 -11.916889 9.015049 27.841833 0.000067 -0.000174 109.152072 -74.182500 93.494682 28.328823 -0.000028 0.000018 0.000023 -0.000087 0.000000 2.465961 -1.576130 2.681910 135.079367 11.409642 -178.287595 3.217855 -1.871799 1.916384 159.755188 -26.596514 23.795718 2.656111 -1.528675 1.514470 136.576463 -28.635850 53.269670 2.020895 -1.154064 1.115145 0.000003 0.000003 0.000004 9.109381 -0.517849 2.259721 88.484506 -16.114213 15.686774 3.700041 0.000166 -0.000483 85.080101 -11.839145 10.885265 2.850031 0.000197 0.000195 84.780153 -9.212668 8.411274 2.774888 -0.000046 -0.000023 0.000001 -0.000000 -0.000000 9.533465 0.000224 -0.000098 90.367501 -15.525761 15.615566 3.700036 0.000199 -0.000378 90.561301 -11.088400 11.194216 2.950073 0.000190 -0.000189 91.142434 -10.992470 11.215413 2.952859 -0.000016 0.000062 -0.000003 0.000001 -0.000001 9.104587 -0.042827 -1.865220 90.586777 -15.504417 15.664013 3.150067 0.000214 -0.000089 93.821090 -13.319907 14.232064 2.950035 0.000200 -0.000065 94.979224 -11.965254 13.045960 2.644310 0.000016 0.000058 -0.000000 0.000000 0.000000 8.077856 -0.486717 -3.806396 79.887060 -19.226397 16.654301 3.600011 0.000164 0.014587 78.709659 -17.349210 14.702940 2.100044 0.000175 0.007555 79.686956 -12.638034 10.966271 2.125496 0.000001 0.007516 -0.000001 0.000002 -0.000000 -8.207786 -6.751667 -1.599560 -0.077001 -0.000003 0.000080 -0.000002 -44.370110 0.345938 0.153719 -0.000000 -0.000000 0.000000 -44.423679 -3.043532 -0.076700 0.000000 -0.000002 -0.000006 -8.728667 10.710559 -0.000009 -0.000000 -0.000000 -0.000001 -0.000679 9.278123 0.000000 -0.000000 -0.000000 8.207792 -6.751710 -1.599556 -0.074518 -0.000003 0.000081 -0.000002 -44.370014 0.346960 0.148822 0.000002 0.000000 -0.000001 -44.423664 -3.044403 -0.074314 0.000000 -0.000002 -0.000004 -8.728671 10.710558 0.000007 -0.000000 -0.000000 0.000000 -0.000680 9.278137 -0.000000 0.000000 -0.000001 
0.000006 104.270477 1.554256 0.000010 0.000003 -0.000113 -0.000005 10.181587 0.131522 0.000001 -0.000003 0.000084 -0.000000 9.893967 -1.470711 0.000001 0.000000 -0.000000 -0.000000 9.220802 -1.370642 0.000000 -0.000000 -0.000000 0.000001 16.740433 -2.049030 0.000000 -0.000000 -0.000000 0.000000 9.617859 1.685014 0.000000 0.000000 0.000000 0.000002 22.037384 7.501101 0.000000 -0.000000 0.000000 -4.569968 11.014880 -2.160881 0.000008 0.000001 -0.000038 -10.592865 -0.524795 -2.231871 76.345683 36.889999 -29.384997 -27.841513 0.000007 0.000555 -50.696540 104.692996 63.096680 -28.328815 0.000022 0.000035 -0.000321 -0.000042 0.000008 -2.464476 -1.573672 2.682282 -54.843328 -179.862185 -35.178988 -3.215284 -1.872606 1.924672 153.540303 29.889099 -6.425074 -2.654955 -1.527882 1.513059 142.259358 27.761765 -38.873277 -2.018827 -1.152013 1.108070 -0.000003 0.000000 0.000005 -9.108363 -0.517553 2.260112 97.436835 14.964615 -17.068597 -3.700059 0.000317 0.001495 95.447140 12.471705 -13.680661 -2.850074 0.000367 -0.000266 94.079442 11.053830 -11.863654 -2.772171 -0.000015 -0.000022 0.000001 -0.000002 -0.000000 -9.532585 0.000262 0.000172 80.966640 16.092382 -13.883142 -3.700060 0.000305 0.003904 80.794963 10.490946 -8.855158 -2.950052 0.000323 -0.001856 83.694297 10.683016 -9.566730 -2.946626 0.000013 -0.000153 0.000001 0.000000 -0.000002 -9.103695 -0.042773 -1.864919 80.270644 19.320467 -16.295464 -3.379327 0.000313 -0.000864 81.731621 8.519365 -7.389069 -2.889755 0.000363 0.000586 88.599506 6.279214 -6.171901 -2.638802 0.000015 0.000939 0.000001 0.000000 0.000000 -8.076761 -0.486406 -3.806076 72.003526 20.215658 -14.645029 -3.600038 0.000250 -0.003584 73.556069 9.565802 -6.885945 -2.100030 0.000302 -0.005552 77.825388 5.381883 -4.168756 -2.115769 -0.000056 -0.003674 -0.000002 0.000001 -0.000003 4.570446 11.014691 -2.160851 -0.000018 0.000010 -0.000021 10.592422 -0.524460 -2.232376 74.100176 -20.083224 15.228335 27.841837 0.000046 -0.000200 109.921936 -75.490154 95.659381 28.328844 -0.000028 0.000013 0.000023 -0.000090 0.000001 2.465980 -1.576156 2.681923 137.305271 12.885662 -184.056468 3.217863 -1.871790 1.916389 161.060655 -26.310894 24.536422 2.656113 -1.528670 1.514478 138.052849 -28.122213 54.321922 2.020895 -1.154078 1.115144 0.000003 0.000002 0.000001 9.109406 -0.517860 2.259749 88.932150 -16.761899 16.444413 3.700035 0.000158 -0.000481 85.800215 -11.567640 10.769825 2.850034 0.000212 0.000194 85.037071 -8.891184 8.154028 2.774886 -0.000032 -0.000027 0.000000 0.000001 0.000000 9.533482 0.000218 -0.000080 91.177466 -16.048984 16.368740 3.700052 0.000199 -0.000375 90.890092 -10.383071 10.542067 2.950046 0.000198 -0.000204 91.208372 -10.499407 10.724851 2.952865 -0.000030 0.000066 0.000001 0.000001 0.000000 9.104604 -0.042825 -1.865226 91.418148 -15.911515 16.307005 3.150065 0.000213 -0.000096 94.548779 -12.654796 13.693999 2.950034 0.000184 -0.000081 95.460472 -11.487555 12.631092 2.644316 0.000015 0.000051 -0.000002 -0.000001 0.000001 8.077864 -0.486723 -3.806404 80.427861 -19.359657 16.926344 3.600021 0.000166 0.014564 80.144224 -17.327696 15.059158 2.100049 0.000183 0.007547 81.551236 -12.956171 11.608046 2.125504 0.000000 0.007517 0.000001 -0.000002 -0.000000 -8.207786 -6.751667 -1.599560 -0.077001 -0.000003 0.000080 -0.000002 -44.370110 0.345938 0.153719 -0.000000 -0.000000 0.000000 -44.423679 -3.043532 -0.076700 0.000000 -0.000002 -0.000006 -8.728667 10.710559 -0.000009 -0.000000 -0.000000 -0.000001 -0.000679 9.278123 0.000000 -0.000000 -0.000000 8.207792 -6.751710 -1.599556 -0.074518 -0.000003 0.000081 -0.000002 -44.370014 0.346960 0.148822 0.000002 0.000000 -0.000001 -44.423664 -3.044403 -0.074314 0.000000 -0.000002 -0.000004 -8.728671 10.710558 0.000007 -0.000000 -0.000000 0.000000 -0.000680 9.278137 -0.000000 0.000000 -0.000001 
